<svg width="353.6px" height="112.2px" xmlns="http://www.w3.org/2000/svg" viewBox="73.19249267578127 18.919998168945312 353.61501464843747 112.16000366210938" style="background: none" preserveAspectRatio="xMidYMid"><defs><linearGradient id="editing-gradient-gradient" x1="0" x2="1" y1="0.5" y2="0.5" gradientUnits="objectBoundingBox"><stop offset="0" stop-color="#1b0629"></stop><stop offset="1" stop-color="#1b0629"></stop></linearGradient></defs><g><g transform="matrix(1.2,0,0,1,131.7,97.3)"><path d="M -34.7 17.4 L -42.1 17.4 L -42.1 -21.2 L -34.7 -21.2 L -34.7 17.4 Z M -31.7 17.4 L -31.7 -15.5 L -24 -15.5 L -24 -11.7 L -24 -11.7 Q -23.5 -13.8 -22.2 -14.8 L -22.2 -14.8 L -22.2 -14.8 Q -20.9 -15.9 -18.5 -15.9 L -18.5 -15.9 L -18.5 -15.9 Q -16.5 -15.9 -15.1 -15 L -15.1 -15 L -15.1 -15 Q -13.7 -14.1 -13.1 -12.6 L -13.1 -12.6 L -13.1 -12.6 Q -12.1 -14.3 -10.9 -15.1 L -10.9 -15.1 L -10.9 -15.1 Q -9.7 -15.9 -7.5 -15.9 L -7.5 -15.9 L -7.5 -15.9 Q -3.7 -15.9 -2.2 -13.5 L -2.2 -13.5 L -2.2 -13.5 Q -0.6 -11.1 -0.6 -6.6 L -0.6 -6.6 L -0.7 17.4 L -8.7 17.4 L -8.7 -6.8 L -8.7 -6.8 Q -8.7 -10 -10.3 -10 L -10.3 -10 L -10.3 -10 Q -11.4 -10 -11.9 -8.9 L -11.9 -8.9 L -11.9 -8.9 Q -12.4 -7.8 -12.4 -6.2 L -12.4 -6.2 L -12.4 17.4 L -20.3 17.4 L -20.3 -6.8 L -20.3 -6.8 Q -20.3 -8.2 -20.6 -9 L -20.6 -9 L -20.6 -9 Q -20.9 -9.9 -21.8 -9.9 L -21.8 -9.9 L -21.8 -9.9 Q -23 -9.9 -23.5 -8.7 L -23.5 -8.7 L -23.5 -8.7 Q -24 -7.5 -24 -5.8 L -24 -5.8 L -24 17.4 L -31.7 17.4 Z M 8.4 17.8 L 8.4 17.8 Q 4.6 17.8 3.2 15.3 L 3.2 15.3 L 3.2 15.3 Q 1.7 12.7 1.7 8 L 1.7 8 L 1.7 8 Q 1.7 4.1 2.8 2 L 2.8 2 L 2.8 2 Q 3.8 0 5.6 -1 L 5.6 -1 L 5.6 -1 Q 7.4 -2 11.1 -3.1 L 11.1 -3.1 L 13.2 -3.9 L 13.2 -3.9 L 13.2 -7.2 L 13.2 -7.2 Q 13.2 -8.5 12.7 -9.2 L 12.7 -9.2 L 12.7 -9.2 Q 12.2 -9.9 11.5 -9.9 L 11.5 -9.9 L 11.5 -9.9 Q 10.8 -9.9 10.4 -9.3 L 10.4 -9.3 L 10.4 -9.3 Q 9.9 -8.8 9.9 -7.8 L 9.9 -7.8 L 9.9 -5.8 L 2.2 -5.8 L 2.2 -6.9 L 2.2 -6.9 Q 2.2 -11.7 4.5 -13.8 L 4.5 -13.8 L 4.5 -13.8 Q 6.8 -15.9 11.9 -15.9 L 11.9 -15.9 L 11.9 -15.9 Q 16 -15.9 18.6 -13.7 L 18.6 -13.7 L 18.6 -13.7 Q 21.1 -11.6 21.1 -7.7 L 21.1 -7.7 L 21.1 17.4 L 13.3 17.4 L 13.3 13.5 L 13.3 13.5 Q 12.7 15.5 11.4 16.7 L 11.4 16.7 L 11.4 16.7 Q 10.2 17.8 8.4 17.8 L 8.4 17.8 Z M 11.5 11.7 L 11.5 11.7 Q 12.4 11.7 12.8 10.9 L 12.8 10.9 L 12.8 10.9 Q 13.2 10.2 13.2 9.1 L 13.2 9.1 L 13.2 -0.1 L 13.2 -0.1 Q 11.4 0.6 10.6 1.6 L 10.6 1.6 L 10.6 1.6 Q 9.7 2.7 9.7 4.5 L 9.7 4.5 L 9.7 8.7 L 9.7 8.7 Q 9.7 11.7 11.5 11.7 L 11.5 11.7 Z M 33 22.2 L 33 22.2 Q 29.5 22.2 27.5 21.7 L 27.5 21.7 L 27.5 21.7 Q 25.5 21.1 23.6 19.5 L 23.6 19.5 L 26.3 15 L 26.3 15 Q 29.1 16.7 32 16.7 L 32 16.7 L 32 16.7 Q 33.8 16.7 34.8 15.5 L 34.8 15.5 L 34.8 15.5 Q 35.7 14.4 35.7 12.4 L 35.7 12.4 L 35.7 10.6 L 35.7 10.6 Q 34.8 13.9 30.7 13.9 L 30.7 13.9 L 30.7 13.9 Q 27.3 13.9 25.7 11.6 L 25.7 11.6 L 25.7 11.6 Q 24.2 9.3 24.2 5.5 L 24.2 5.5 L 24.2 -6.9 L 24.2 -6.9 Q 24.2 -11.2 25.6 -13.5 L 25.6 -13.5 L 25.6 -13.5 Q 27.1 -15.9 30.7 -15.9 L 30.7 -15.9 L 30.7 -15.9 Q 32.8 -15.9 34.1 -14.8 L 34.1 -14.8 L 34.1 -14.8 Q 35.3 -13.7 35.7 -11.8 L 35.7 -11.8 L 35.7 -15.5 L 43.8 -15.5 L 43.8 11.9 L 43.8 11.9 Q 43.8 17.4 41.2 19.8 L 41.2 19.8 L 41.2 19.8 Q 38.6 22.2 33 22.2 L 33 22.2 Z M 33.9 8 L 33.9 8 Q 35.7 8 35.7 4.7 L 35.7 4.7 L 35.7 -7.1 L 35.7 -7.1 Q 35.7 -8.1 35.2 -9 L 35.2 -9 L 35.2 -9 Q 34.6 -9.9 33.8 -9.9 L 33.8 -9.9 L 33.8 -9.9 Q 32.8 -9.9 32.4 -9.1 L 32.4 -9.1 L 32.4 -9.1 Q 32.1 -8.4 32.1 -7.1 L 32.1 -7.1 L 32.1 4.7 L 32.1 4.7 Q 32.1 6.1 32.4 7.1 L 32.4 7.1 L 32.4 7.1 Q 32.8 8 33.9 8 L 33.9 8 Z M 56.1 17.8 L 56.1 17.8 Q 51 17.8 48.8 15 L 48.8 15 L 48.8 15 Q 46.6 12.2 46.6 6.7 L 46.6 6.7 L 46.6 -6.5 L 46.6 -6.5 Q 46.6 -11.1 49.2 -13.5 L 49.2 -13.5 L 49.2 -13.5 Q 51.8 -15.9 56.5 -15.9 L 56.5 -15.9 L 56.5 -15.9 Q 66 -15.9 66 -6.5 L 66 -6.5 L 66 -4.2 L 66 -4.2 Q 66 -0.6 65.9 1.7 L 65.9 1.7 L 54.4 1.7 L 54.4 8.1 L 54.4 8.1 Q 54.4 9.8 54.8 10.8 L 54.8 10.8 L 54.8 10.8 Q 55.2 11.7 56.3 11.7 L 56.3 11.7 L 56.3 11.7 Q 57.2 11.7 57.6 11.2 L 57.6 11.2 L 57.6 11.2 Q 58 10.6 58.1 9.9 L 58.1 9.9 L 58.1 9.9 Q 58.1 9.2 58.1 7.9 L 58.1 7.9 L 58.1 4.7 L 66 4.7 L 66 6.6 L 66 6.6 Q 66 12.4 63.7 15.1 L 63.7 15.1 L 63.7 15.1 Q 61.5 17.8 56.1 17.8 L 56.1 17.8 Z M 54.4 -2.2 L 58.1 -2.2 L 58.1 -6.5 L 58.1 -6.5 Q 58.1 -10 56.4 -10 L 56.4 -10 L 56.4 -10 Q 54.4 -10 54.4 -6.5 L 54.4 -6.5 L 54.4 -2.2 Z M 87.4 17.8 L 87.4 17.8 Q 83.2 17.8 81.2 14.8 L 81.2 14.8 L 81.2 14.8 Q 79.1 11.9 79.1 5.9 L 79.1 5.9 L 79.1 -10.7 L 79.1 -10.7 Q 79.1 -16.1 81.5 -18.8 L 81.5 -18.8 L 81.5 -18.8 Q 83.9 -21.6 88.6 -21.6 L 88.6 -21.6 L 88.6 -21.6 Q 92.5 -21.6 94.6 -20 L 94.6 -20 L 94.6 -20 Q 96.7 -18.5 97.5 -15.6 L 97.5 -15.6 L 97.5 -15.6 Q 98.3 -12.7 98.3 -8.1 L 98.3 -8.1 L 90.8 -8.1 L 90.8 -11.5 L 90.8 -11.5 Q 90.8 -12.9 90.4 -13.7 L 90.4 -13.7 L 90.4 -13.7 Q 90 -14.5 89 -14.5 L 89 -14.5 L 89 -14.5 Q 86.8 -14.5 86.8 -11.6 L 86.8 -11.6 L 86.8 7.1 L 86.8 7.1 Q 86.8 8.9 87.2 9.8 L 87.2 9.8 L 87.2 9.8 Q 87.7 10.7 88.8 10.7 L 88.8 10.7 L 88.8 10.7 Q 89.9 10.7 90.4 9.8 L 90.4 9.8 L 90.4 9.8 Q 90.8 8.9 90.8 7.1 L 90.8 7.1 L 90.8 1.6 L 88.8 1.6 L 88.8 -5.1 L 98.2 -5.1 L 98.2 17.4 L 95.1 17.4 L 93.8 14.2 L 93.8 14.2 Q 91.7 17.8 87.4 17.8 L 87.4 17.8 Z M 107.1 17.8 L 107.1 17.8 Q 103.3 17.8 101.9 15.3 L 101.9 15.3 L 101.9 15.3 Q 100.5 12.7 100.5 8 L 100.5 8 L 100.5 8 Q 100.5 4.1 101.5 2 L 101.5 2 L 101.5 2 Q 102.5 0 104.3 -1 L 104.3 -1 L 104.3 -1 Q 106.1 -2 109.8 -3.1 L 109.8 -3.1 L 111.9 -3.9 L 111.9 -3.9 L 111.9 -7.2 L 111.9 -7.2 Q 111.9 -8.5 111.4 -9.2 L 111.4 -9.2 L 111.4 -9.2 Q 110.9 -9.9 110.2 -9.9 L 110.2 -9.9 L 110.2 -9.9 Q 109.6 -9.9 109.1 -9.3 L 109.1 -9.3 L 109.1 -9.3 Q 108.6 -8.8 108.6 -7.8 L 108.6 -7.8 L 108.6 -5.8 L 101 -5.8 L 101 -6.9 L 101 -6.9 Q 101 -11.7 103.2 -13.8 L 103.2 -13.8 L 103.2 -13.8 Q 105.5 -15.9 110.6 -15.9 L 110.6 -15.9 L 110.6 -15.9 Q 114.7 -15.9 117.3 -13.7 L 117.3 -13.7 L 117.3 -13.7 Q 119.9 -11.6 119.9 -7.7 L 119.9 -7.7 L 119.9 17.4 L 112 17.4 L 112 13.5 L 112 13.5 Q 111.5 15.5 110.2 16.7 L 110.2 16.7 L 110.2 16.7 Q 108.9 17.8 107.1 17.8 L 107.1 17.8 Z M 110.2 11.7 L 110.2 11.7 Q 111.1 11.7 111.5 10.9 L 111.5 10.9 L 111.5 10.9 Q 111.9 10.2 111.9 9.1 L 111.9 9.1 L 111.9 -0.1 L 111.9 -0.1 Q 110.1 0.6 109.3 1.6 L 109.3 1.6 L 109.3 1.6 Q 108.5 2.7 108.5 4.5 L 108.5 4.5 L 108.5 8.7 L 108.5 8.7 Q 108.5 11.7 110.2 11.7 L 110.2 11.7 Z M 130.9 17.4 L 122.9 17.4 L 122.9 -21.4 L 130.9 -21.4 L 130.9 17.4 Z M 142.1 17.4 L 134 17.4 L 134 -21.4 L 142.1 -21.4 L 142.1 17.4 Z M 154.4 17.8 L 154.4 17.8 Q 149.3 17.8 147.1 15 L 147.1 15 L 147.1 15 Q 144.9 12.2 144.9 6.7 L 144.9 6.7 L 144.9 -6.5 L 144.9 -6.5 Q 144.9 -11.1 147.5 -13.5 L 147.5 -13.5 L 147.5 -13.5 Q 150.2 -15.9 154.8 -15.9 L 154.8 -15.9 L 154.8 -15.9 Q 164.3 -15.9 164.3 -6.5 L 164.3 -6.5 L 164.3 -4.2 L 164.3 -4.2 Q 164.3 -0.6 164.2 1.7 L 164.2 1.7 L 152.8 1.7 L 152.8 8.1 L 152.8 8.1 Q 152.8 9.8 153.2 10.8 L 153.2 10.8 L 153.2 10.8 Q 153.5 11.7 154.7 11.7 L 154.7 11.7 L 154.7 11.7 Q 155.6 11.7 156 11.2 L 156 11.2 L 156 11.2 Q 156.4 10.6 156.4 9.9 L 156.4 9.9 L 156.4 9.9 Q 156.5 9.2 156.5 7.9 L 156.5 7.9 L 156.5 4.7 L 164.3 4.7 L 164.3 6.6 L 164.3 6.6 Q 164.3 12.4 162.1 15.1 L 162.1 15.1 L 162.1 15.1 Q 159.9 17.8 154.4 17.8 L 154.4 17.8 Z M 152.8 -2.2 L 156.5 -2.2 L 156.5 -6.5 L 156.5 -6.5 Q 156.5 -10 154.7 -10 L 154.7 -10 L 154.7 -10 Q 152.8 -10 152.8 -6.5 L 152.8 -6.5 L 152.8 -2.2 Z M 167.2 17.4 L 167.2 -15.5 L 175 -15.5 L 175 -11.9 L 175 -11.9 Q 175.6 -13.8 177.1 -14.9 L 177.1 -14.9 L 177.1 -14.9 Q 178.5 -15.9 180.7 -15.9 L 180.7 -15.9 L 180.7 -9.3 L 180.7 -9.3 Q 179 -9.3 177 -8.9 L 177 -8.9 L 177 -8.9 Q 175 -8.4 175 -7.8 L 175 -7.8 L 175 17.4 L 167.2 17.4 Z M 182 22.9 L 182 17.9 L 185.8 17.9 L 185.8 17.9 Q 186.6 17.9 186.6 17.3 L 186.6 17.3 L 186.6 17.3 Q 186.6 16.9 186.6 16.8 L 186.6 16.8 L 181.4 -15.5 L 188.9 -15.5 L 190.4 0.6 L 191.1 8.7 L 192 0.6 L 193.8 -15.5 L 201.3 -15.5 L 195.2 19.1 L 195.2 19.1 Q 194.9 21.1 193.9 22 L 193.9 22 L 193.9 22 Q 192.9 22.9 190.9 22.9 L 190.9 22.9 L 182 22.9 Z" fill="url(#editing-gradient-gradient)"></path></g></g><style>text {
  font-size: 64px;
  font-family: Arial Black;
  dominant-baseline: central;
  text-anchor: middle;
}</style></svg>